# xmcd
#
# Track frame offsets: 
#        150
#        16641
#        31057
#        44962
#        60783
#        74760
#        91917
#        110669
#        128583
#        140100
#        154657
#        167245
#        181943
#        201098
#        217878
#        234720
#        252770
#        264882
#        279346
#        295362
#
# Disc length: 4160 seconds
#
# Revision: 0
# Processed by: cddbd v1.5.2PL0 Copyright (c) Steve Scherf et al.
# Submitted via: ExactAudioCopy v1.3
#
DISCID=1e103e14
DTITLE=Ray Price, 1973, 74, 75 - You're The Best Thing...(1973, 74)_ I
DTITLE=f You Ever Change Your Mind (1975)
DYEAR=2019
DGENRE=Country
TTITLE0=Ray Price, 1973, 74 - The Need To Be
TTITLE1=Ray Price, 1973, 74 - You Are A Song
TTITLE2=Ray Price, 1973, 74 - It Must Be Love This Time
TTITLE3=Ray Price, 1973, 74 - Where Peaceful Waters Flow
TTITLE4=Ray Price, 1973, 74 - To A Gentler Time
TTITLE5=Ray Price, 1973, 74 - You're The Best Thing That Ever Happened
TTITLE5=To Me
TTITLE6=Ray Price, 1973, 74 - Some Things Never Change
TTITLE7=Ray Price, 1973, 74 - Storms Of Troubled Times
TTITLE8=Ray Price, 1973, 74 - Like A First Time Thing
TTITLE9=Ray Price, 1973, 74 - Jesus Is My Kind Of People
TTITLE10=Ray Price, 1975 - If You Ever Change Your Mind
TTITLE11=Ray Price, 1975 - Same Old Song And Dance
TTITLE12=Ray Price, 1975 - Between His Goodbye And My Hello
TTITLE13=Ray Price, 1975 - Neither One Of Us (Wants To Be The First To
TTITLE13=Say Goodbye)
TTITLE14=Ray Price, 1975 - Sometime In Early August
TTITLE15=Ray Price, 1975 - Everything Reminds Me Of You
TTITLE16=Ray Price, 1975 - Just Enough To Make Me Stay
TTITLE17=Ray Price, 1975 - Loving You Is Just An Old Habit
TTITLE18=Ray Price, 1975 - Seeing You Again
TTITLE19=Ray Price, 1975 - Until Your Ship Comes In
EXTD=
EXTT0=
EXTT1=
EXTT2=
EXTT3=
EXTT4=
EXTT5=
EXTT6=
EXTT7=
EXTT8=
EXTT9=
EXTT10=
EXTT11=
EXTT12=
EXTT13=
EXTT14=
EXTT15=
EXTT16=
EXTT17=
EXTT18=
EXTT19=
PLAYORDER=
